<?xml version="1.0" encoding="UTF-8" standalone="no"?>
<!-- Creator: fig2dev Version 3.2.9 -->
<!-- CreationDate: 2025-12-07 15:41:36 -->
<!-- Magnification: 1.05 -->
<svg	xmlns="http://www.w3.org/2000/svg"
	xmlns:xlink="http://www.w3.org/1999/xlink"
	width="801pt" height="535pt"
	viewBox="258 348 12714 8484">
<g fill="none">
<!-- Line -->
<rect x="2160" y="360" width="3240" height="810"
	stroke="#000000" stroke-width="8px"/>
<!-- Line -->
<defs>
<clipPath id="cp0">
	<path clip-rule="evenodd" d="M 258,348 H 12972 V 8832 H 258 z
		M 3720,1619 3660,1619 3683,1762 3697,1762z"/>
</clipPath>
</defs>
<polyline points=" 3690,1170 3690,1755" clip-path="url(#cp0)"
	stroke="#000000" stroke-width="8px"/>
<!-- Forward arrow to point 3690,1755 -->
<polygon points=" 3660,1619 3690,1739 3720,1619 3660,1619"
	stroke="#000000" stroke-width="8px" stroke-miterlimit="8" fill="#000000"/>
<!-- Line -->
<rect x="2115" y="1710" width="3285" height="945"
	stroke="#000000" stroke-width="8px"/>
<!-- Line -->
<rect x="2160" y="7020" width="3330" height="1755"
	stroke="#000000" stroke-width="8px"/>
<!-- Line -->
<rect x="3195" y="3195" width="1305" height="3150"
	stroke="#000000" stroke-width="8px"/>
<!-- Line -->
<rect x="2070" y="3195" width="855" height="3150"
	stroke="#000000" stroke-width="8px"/>
<!-- Line -->
<defs>
<clipPath id="cp1">
	<path clip-rule="evenodd" d="M 258,348 H 12972 V 8832 H 258 z
		M 3900,3059 3840,3059 3863,3202 3877,3202z"/>
</clipPath>
</defs>
<polyline points=" 3870,2655 3870,3195" clip-path="url(#cp1)"
	stroke="#000000" stroke-width="8px"/>
<!-- Forward arrow to point 3870,3195 -->
<polygon points=" 3840,3059 3870,3179 3900,3059 3840,3059"
	stroke="#000000" stroke-width="8px" stroke-miterlimit="8" fill="#000000"/>
<!-- Line -->
<defs>
<clipPath id="cp2">
	<path clip-rule="evenodd" d="M 258,348 H 12972 V 8832 H 258 z
		M 3900,6884 3840,6884 3863,7027 3877,7027z"/>
</clipPath>
</defs>
<polyline points=" 3870,6345 3870,7020" clip-path="url(#cp2)"
	stroke="#000000" stroke-width="8px"/>
<!-- Forward arrow to point 3870,7020 -->
<polygon points=" 3840,6884 3870,7004 3900,6884 3840,6884"
	stroke="#000000" stroke-width="8px" stroke-miterlimit="8" fill="#000000"/>
<!-- Line -->
<defs>
<clipPath id="cp3">
	<path clip-rule="evenodd" d="M 258,348 H 12972 V 8832 H 258 z
		M 3855,4274 3795,4274 3818,4417 3832,4417z"/>
</clipPath>
</defs>
<polyline points=" 3825,3510 3825,4410" clip-path="url(#cp3)"
	stroke="#000000" stroke-width="8px"/>
<!-- Forward arrow to point 3825,4410 -->
<polygon points=" 3795,4274 3825,4394 3855,4274 3795,4274"
	stroke="#000000" stroke-width="8px" stroke-miterlimit="8" fill="#000000"/>
<!-- Line -->
<rect x="7560" y="3195" width="3285" height="3150"
	stroke="#000000" stroke-width="8px"/>
<!-- Line -->
<rect x="11790" y="4545" width="1080" height="1800"
	stroke="#000000" stroke-width="8px"/>
<!-- Line -->
<defs>
<clipPath id="cp4">
	<path clip-rule="evenodd" d="M 258,348 H 12972 V 8832 H 258 z
		M 12405,6929 12345,6929 12368,7072 12382,7072z"/>
</clipPath>
</defs>
<polyline points=" 12375,6345 12375,7065" clip-path="url(#cp4)"
	stroke="#000000" stroke-width="8px"/>
<!-- Forward arrow to point 12375,7065 -->
<polygon points=" 12345,6929 12375,7049 12405,6929 12345,6929"
	stroke="#000000" stroke-width="8px" stroke-miterlimit="8" fill="#000000"/>
<!-- Line -->
<defs>
<clipPath id="cp5">
	<path clip-rule="evenodd" d="M 258,348 H 12972 V 8832 H 258 z
		M 11654,4785 11654,4845 11797,4822 11797,4808z"/>
</clipPath>
</defs>
<polyline points=" 10845,4815 11790,4815" clip-path="url(#cp5)"
	stroke="#000000" stroke-width="8px"/>
<!-- Forward arrow to point 11790,4815 -->
<polygon points=" 11654,4845 11774,4815 11654,4785 11654,4845"
	stroke="#000000" stroke-width="8px" stroke-miterlimit="8" fill="#000000"/>
<!-- Line -->
<rect x="10530" y="7065" width="2430" height="1755"
	stroke="#000000" stroke-width="8px"/>
<!-- Line -->
<defs>
<clipPath id="cp6">
	<path clip-rule="evenodd" d="M 258,348 H 12972 V 8832 H 258 z
		M 7950,3059 7890,3059 7913,3202 7927,3202z"/>
</clipPath>
</defs>
<polyline points=" 3870,2790 7920,2790 7920,3195" clip-path="url(#cp6)"
	stroke="#000000" stroke-width="8px"/>
<!-- Forward arrow to point 7920,3195 -->
<polygon points=" 7890,3059 7920,3179 7950,3059 7890,3059"
	stroke="#000000" stroke-width="8px" stroke-miterlimit="8" fill="#000000"/>
<!-- Line -->
<defs>
<clipPath id="cp7">
	<path clip-rule="evenodd" d="M 258,348 H 12972 V 8832 H 258 z
		M 4006,6600 4006,6540 3863,6563 3863,6577z"/>
</clipPath>
</defs>
<polyline points=" 7920,6345 7920,6570 3870,6570" clip-path="url(#cp7)"
	stroke="#000000" stroke-width="8px"/>
<!-- Forward arrow to point 3870,6570 -->
<polygon points=" 4006,6540 3886,6570 4006,6600 4006,6540"
	stroke="#000000" stroke-width="8px" stroke-miterlimit="8" fill="#000000"/>
<!-- Line -->
<defs>
<clipPath id="cp8">
	<path clip-rule="evenodd" d="M 258,348 H 12972 V 8832 H 258 z
		M 4681,5070 4681,5010 4538,5033 4538,5047z"/>
</clipPath>
</defs>
<polyline points=" 7560,5040 4545,5040" clip-path="url(#cp8)"
	stroke="#000000" stroke-width="8px" stroke-dasharray="40 40"/>
<!-- Forward arrow to point 4545,5040 -->
<polygon points=" 4681,5010 4561,5040 4681,5070 4681,5010"
	stroke="#000000" stroke-width="8px" stroke-miterlimit="8" fill="#000000"/>
<!-- Line -->
<defs>
<clipPath id="cp9">
	<path clip-rule="evenodd" d="M 258,348 H 12972 V 8832 H 258 z
		M 12239,6630 12239,6690 12382,6667 12382,6653z"/>
</clipPath>
</defs>
<polyline points=" 5490,7965 8145,7965 8145,6660 12375,6660" clip-path="url(#cp9)"
	stroke="#000000" stroke-width="8px" stroke-dasharray="40 40"/>
<!-- Forward arrow to point 12375,6660 -->
<polygon points=" 12239,6690 12359,6660 12239,6630 12239,6690"
	stroke="#000000" stroke-width="8px" stroke-miterlimit="8" fill="#000000"/>
<!-- Line -->
<defs>
<clipPath id="cp10">
	<path clip-rule="evenodd" d="M 258,348 H 12972 V 8832 H 258 z
		M 10394,7440 10394,7500 10537,7477 10537,7463z"/>
</clipPath>
</defs>
<polyline points=" 8910,6345 8910,7470 10530,7470" clip-path="url(#cp10)"
	stroke="#000000" stroke-width="8px" stroke-dasharray="40 40"/>
<!-- Forward arrow to point 10530,7470 -->
<polygon points=" 10394,7500 10514,7470 10394,7440 10394,7500"
	stroke="#000000" stroke-width="8px" stroke-miterlimit="8" fill="#000000"/>
<!-- Line -->
<defs>
<clipPath id="cp11">
	<path clip-rule="evenodd" d="M 258,348 H 12972 V 8832 H 258 z
		M 8520,6481 8580,6481 8557,6338 8543,6338z"/>
</clipPath>
</defs>
<polyline points=" 10530,7830 8550,7830 8550,6345" clip-path="url(#cp11)"
	stroke="#000000" stroke-width="8px" stroke-dasharray="40 40"/>
<!-- Forward arrow to point 8550,6345 -->
<polygon points=" 8580,6481 8550,6361 8520,6481 8580,6481"
	stroke="#000000" stroke-width="8px" stroke-miterlimit="8" fill="#000000"/>
<!-- Line -->
<defs>
<clipPath id="cp12">
	<path clip-rule="evenodd" d="M 258,348 H 12972 V 8832 H 258 z
		M 11699,5325 11699,5385 11842,5362 11842,5348z"/>
</clipPath>
</defs>
<polyline points=" 10845,5355 11835,5355" clip-path="url(#cp12)"
	stroke="#000000" stroke-width="8px" stroke-dasharray="40 40"/>
<!-- Forward arrow to point 11835,5355 -->
<polygon points=" 11699,5385 11819,5355 11699,5325 11699,5385"
	stroke="#000000" stroke-width="8px" stroke-miterlimit="8" fill="#000000"/>
<!-- Line -->
<defs>
<clipPath id="cp13">
	<path clip-rule="evenodd" d="M 258,348 H 12972 V 8832 H 258 z
		M 10981,5790 10981,5730 10838,5753 10838,5767z"/>
</clipPath>
</defs>
<polyline points=" 11790,5760 10845,5760" clip-path="url(#cp13)"
	stroke="#000000" stroke-width="8px" stroke-dasharray="40 40"/>
<!-- Forward arrow to point 10845,5760 -->
<polygon points=" 10981,5730 10861,5760 10981,5790 10981,5730"
	stroke="#000000" stroke-width="8px" stroke-miterlimit="8" fill="#000000"/>
<!-- Line -->
<defs>
<clipPath id="cp14">
	<path clip-rule="evenodd" d="M 258,348 H 12972 V 8832 H 258 z
		M 3630,3059 3570,3059 3593,3202 3607,3202z"/>
</clipPath>
</defs>
<polyline points=" 3600,2655 3600,3195" clip-path="url(#cp14)"
	stroke="#000000" stroke-width="8px" stroke-dasharray="40 40"/>
<!-- Forward arrow to point 3600,3195 -->
<polygon points=" 3570,3059 3600,3179 3630,3059 3570,3059"
	stroke="#000000" stroke-width="8px" stroke-miterlimit="8" fill="#000000"/>
<!-- Line -->
<defs>
<clipPath id="cp15">
	<path clip-rule="evenodd" d="M 258,348 H 12972 V 8832 H 258 z
		M 3675,6884 3615,6884 3638,7027 3652,7027z"/>
</clipPath>
</defs>
<polyline points=" 3645,6345 3645,7020" clip-path="url(#cp15)"
	stroke="#000000" stroke-width="8px" stroke-dasharray="40 40"/>
<!-- Forward arrow to point 3645,7020 -->
<polygon points=" 3615,6884 3645,7004 3675,6884 3615,6884"
	stroke="#000000" stroke-width="8px" stroke-miterlimit="8" fill="#000000"/>
<!-- Line -->
<defs>
<clipPath id="cp16">
	<path clip-rule="evenodd" d="M 258,348 H 12972 V 8832 H 258 z
		M 2400,6481 2460,6481 2437,6338 2423,6338z"/>
</clipPath>
</defs>
<polyline points=" 2430,7020 2430,6345" clip-path="url(#cp16)"
	stroke="#000000" stroke-width="8px" stroke-dasharray="40 40"/>
<!-- Forward arrow to point 2430,6345 -->
<polygon points=" 2460,6481 2430,6361 2400,6481 2460,6481"
	stroke="#000000" stroke-width="8px" stroke-miterlimit="8" fill="#000000"/>
<!-- Line -->
<defs>
<clipPath id="cp17">
	<path clip-rule="evenodd" d="M 258,348 H 12972 V 8832 H 258 z
		M 2400,2791 2460,2791 2437,2648 2423,2648z"/>
</clipPath>
</defs>
<polyline points=" 2430,3195 2430,2655" clip-path="url(#cp17)"
	stroke="#000000" stroke-width="8px" stroke-dasharray="40 40"/>
<!-- Forward arrow to point 2430,2655 -->
<polygon points=" 2460,2791 2430,2671 2400,2791 2460,2791"
	stroke="#000000" stroke-width="8px" stroke-miterlimit="8" fill="#000000"/>
<!-- Line -->
<defs>
<clipPath id="cp18">
	<path clip-rule="evenodd" d="M 258,348 H 12972 V 8832 H 258 z
		M 2400,5176 2460,5176 2437,5033 2423,5033z"/>
</clipPath>
</defs>
<polyline points=" 2430,6165 2430,5040" clip-path="url(#cp18)"
	stroke="#000000" stroke-width="8px" stroke-dasharray="40 40"/>
<!-- Forward arrow to point 2430,5040 -->
<polygon points=" 2460,5176 2430,5056 2400,5176 2460,5176"
	stroke="#000000" stroke-width="8px" stroke-miterlimit="8" fill="#000000"/>
<!-- Line -->
<defs>
<clipPath id="cp19">
	<path clip-rule="evenodd" d="M 258,348 H 12972 V 8832 H 258 z
		M 3585,4229 3525,4229 3548,4372 3562,4372z"/>
</clipPath>
</defs>
<polyline points=" 3555,3510 3555,4365" clip-path="url(#cp19)"
	stroke="#000000" stroke-width="8px" stroke-dasharray="40 40"/>
<!-- Forward arrow to point 3555,4365 -->
<polygon points=" 3525,4229 3555,4349 3585,4229 3525,4229"
	stroke="#000000" stroke-width="8px" stroke-miterlimit="8" fill="#000000"/>
<!-- Line -->
<rect x="270" y="1755" width="1260" height="810"
	stroke="#000000" stroke-width="8px"/>
<!-- Line -->
<rect x="270" y="7155" width="1305" height="810"
	stroke="#000000" stroke-width="8px"/>
<!-- Line -->
<defs>
<clipPath id="cp20">
	<path clip-rule="evenodd" d="M 258,348 H 12972 V 8832 H 258 z
		M 1979,1950 1979,2010 2122,1987 2122,1973z"/>
</clipPath>
</defs>
<polyline points=" 1530,1980 2115,1980" clip-path="url(#cp20)"
	stroke="#000000" stroke-width="8px" stroke-dasharray="40 40"/>
<!-- Forward arrow to point 2115,1980 -->
<polygon points=" 1979,2010 2099,1980 1979,1950 1979,2010"
	stroke="#000000" stroke-width="8px" stroke-miterlimit="8" fill="#000000"/>
<!-- Line -->
<defs>
<clipPath id="cp21">
	<path clip-rule="evenodd" d="M 258,348 H 12972 V 8832 H 258 z
		M 1666,2325 1666,2265 1523,2288 1523,2302z"/>
</clipPath>
</defs>
<polyline points=" 2115,2295 1530,2295" clip-path="url(#cp21)"
	stroke="#000000" stroke-width="8px" stroke-dasharray="40 40"/>
<!-- Forward arrow to point 1530,2295 -->
<polygon points=" 1666,2265 1546,2295 1666,2325 1666,2265"
	stroke="#000000" stroke-width="8px" stroke-miterlimit="8" fill="#000000"/>
<!-- Line -->
<defs>
<clipPath id="cp22">
	<path clip-rule="evenodd" d="M 258,348 H 12972 V 8832 H 258 z
		M 2024,7350 2024,7410 2167,7387 2167,7373z"/>
</clipPath>
</defs>
<polyline points=" 1575,7380 2160,7380" clip-path="url(#cp22)"
	stroke="#000000" stroke-width="8px" stroke-dasharray="40 40"/>
<!-- Forward arrow to point 2160,7380 -->
<polygon points=" 2024,7410 2144,7380 2024,7350 2024,7410"
	stroke="#000000" stroke-width="8px" stroke-miterlimit="8" fill="#000000"/>
<!-- Line -->
<defs>
<clipPath id="cp23">
	<path clip-rule="evenodd" d="M 258,348 H 12972 V 8832 H 258 z
		M 1711,7770 1711,7710 1568,7733 1568,7747z"/>
</clipPath>
</defs>
<polyline points=" 2160,7740 1575,7740" clip-path="url(#cp23)"
	stroke="#000000" stroke-width="8px" stroke-dasharray="40 40"/>
<!-- Forward arrow to point 1575,7740 -->
<polygon points=" 1711,7710 1591,7740 1711,7770 1711,7710"
	stroke="#000000" stroke-width="8px" stroke-miterlimit="8" fill="#000000"/>
<!-- Line -->
<defs>
<clipPath id="cp24">
	<path clip-rule="evenodd" d="M 258,348 H 12972 V 8832 H 258 z
		M 7424,5640 7424,5700 7567,5677 7567,5663z"/>
</clipPath>
</defs>
<polyline points=" 4500,5670 7560,5670" clip-path="url(#cp24)"
	stroke="#000000" stroke-width="8px" stroke-dasharray="40 40"/>
<!-- Forward arrow to point 7560,5670 -->
<polygon points=" 7424,5700 7544,5670 7424,5640 7424,5700"
	stroke="#000000" stroke-width="8px" stroke-miterlimit="8" fill="#000000"/>
<!-- Line -->
<defs>
<clipPath id="cp25">
	<path clip-rule="evenodd" d="M 258,348 H 12972 V 8832 H 258 z
		M 600,2656 660,2656 637,2513 623,2513z"/>
</clipPath>
</defs>
<polyline points=" 630,7155 630,2520" clip-path="url(#cp25)"
	stroke="#000000" stroke-width="8px" stroke-dasharray="40 40"/>
<!-- Forward arrow to point 630,2520 -->
<polygon points=" 660,2656 630,2536 600,2656 660,2656"
	stroke="#000000" stroke-width="8px" stroke-miterlimit="8" fill="#000000"/>
<!-- Line -->
<defs>
<clipPath id="cp26">
	<path clip-rule="evenodd" d="M 258,348 H 12972 V 8832 H 258 z
		M 2400,3511 2460,3511 2437,3368 2423,3368z"/>
</clipPath>
</defs>
<polyline points=" 2430,4185 2430,3375" clip-path="url(#cp26)"
	stroke="#000000" stroke-width="8px" stroke-dasharray="40 40"/>
<!-- Forward arrow to point 2430,3375 -->
<polygon points=" 2460,3511 2430,3391 2400,3511 2460,3511"
	stroke="#000000" stroke-width="8px" stroke-miterlimit="8" fill="#000000"/>
<!-- Text -->
<text xml:space="preserve" x="2430" y="675" fill="#000000" font-family="Times" font-style="normal" font-weight="normal" font-size="144" text-anchor="start">Hentning og</text>
<!-- Text -->
<text xml:space="preserve" x="2430" y="892" fill="#000000" font-family="Times" font-style="normal" font-weight="normal" font-size="144" text-anchor="start">Forudsigelse</text>
<!-- Text -->
<text xml:space="preserve" x="2385" y="2070" fill="#000000" font-family="Times" font-style="normal" font-weight="normal" font-size="144" text-anchor="start">Omskrivning fra RISCV</text>
<!-- Text -->
<text xml:space="preserve" x="2385" y="2340" fill="#000000" font-family="Times" font-style="normal" font-weight="normal" font-size="144" text-anchor="start">til dataflow operationer  (uops)</text>
<!-- Text -->
<text xml:space="preserve" x="2385" y="7380" fill="#000000" font-family="Times" font-style="normal" font-weight="normal" font-size="144" text-anchor="start">Fuldførelse (i programrækkefølge)</text>
<!-- Text -->
<text xml:space="preserve" x="3510" y="4770" fill="#000000" font-family="Times" font-style="normal" font-weight="normal" font-size="144" text-anchor="start">Reorder</text>
<!-- Text -->
<text xml:space="preserve" x="3510" y="4987" fill="#000000" font-family="Times" font-style="normal" font-weight="normal" font-size="144" text-anchor="start">Buffer</text>
<!-- Text -->
<text xml:space="preserve" x="3510" y="5204" fill="#000000" font-family="Times" font-style="normal" font-weight="normal" font-size="144" text-anchor="start">(ROB)</text>
<!-- Text -->
<text xml:space="preserve" x="2250" y="4680" fill="#000000" font-family="Times" font-style="normal" font-weight="normal" font-size="144" text-anchor="start">fri-</text>
<!-- Text -->
<text xml:space="preserve" x="2250" y="4897" fill="#000000" font-family="Times" font-style="normal" font-weight="normal" font-size="144" text-anchor="start">liste</text>
<!-- Text -->
<text xml:space="preserve" x="7785" y="3645" fill="#000000" font-family="Times" font-style="normal" font-weight="normal" font-size="144" text-anchor="start">Dataflow maskine</text>
<!-- Text -->
<text xml:space="preserve" x="7785" y="4635" fill="#000000" font-family="Times" font-style="normal" font-weight="normal" font-size="144" text-anchor="start">Operationer udføres i</text>
<!-- Text -->
<text xml:space="preserve" x="7785" y="4852" fill="#000000" font-family="Times" font-style="normal" font-weight="normal" font-size="144" text-anchor="start">dataflow rækkefølge</text>
<!-- Text -->
<text xml:space="preserve" x="11970" y="4995" fill="#000000" font-family="Times" font-style="normal" font-weight="normal" font-size="144" text-anchor="start">Store</text>
<!-- Text -->
<text xml:space="preserve" x="11970" y="5212" fill="#000000" font-family="Times" font-style="normal" font-weight="normal" font-size="144" text-anchor="start">Queue</text>
<!-- Text -->
<text xml:space="preserve" x="11250" y="7965" fill="#000000" font-family="Times" font-style="normal" font-weight="normal" font-size="144" text-anchor="start">Datacache</text>
<!-- Text -->
<text xml:space="preserve" x="4905" y="4770" fill="#000000" font-family="Times" font-style="normal" font-weight="normal" font-size="144" text-anchor="start">operation</text>
<!-- Text -->
<text xml:space="preserve" x="4905" y="4987" fill="#000000" font-family="Times" font-style="normal" font-weight="normal" font-size="144" text-anchor="start">status</text>
<!-- Text -->
<text xml:space="preserve" x="11655" y="6840" fill="#000000" font-family="Times" font-style="normal" font-weight="normal" font-size="144" text-anchor="start">commit</text>
<!-- Text -->
<text xml:space="preserve" x="9045" y="7290" fill="#000000" font-family="Times" font-style="normal" font-weight="normal" font-size="144" text-anchor="start">lookup</text>
<!-- Text -->
<text xml:space="preserve" x="8730" y="8100" fill="#000000" font-family="Times" font-style="normal" font-weight="normal" font-size="144" text-anchor="start">load data</text>
<!-- Text -->
<text xml:space="preserve" x="10935" y="5175" fill="#000000" font-family="Times" font-style="normal" font-weight="normal" font-size="144" text-anchor="start">lookup</text>
<!-- Text -->
<text xml:space="preserve" x="10935" y="6075" fill="#000000" font-family="Times" font-style="normal" font-weight="normal" font-size="144" text-anchor="start">load</text>
<!-- Text -->
<text xml:space="preserve" x="10935" y="6292" fill="#000000" font-family="Times" font-style="normal" font-weight="normal" font-size="144" text-anchor="start">data</text>
<!-- Text -->
<text xml:space="preserve" x="10935" y="4590" fill="#000000" font-family="Times" font-style="normal" font-weight="normal" font-size="144" text-anchor="start">store a+d</text>
<!-- Text -->
<text xml:space="preserve" x="11925" y="5670" fill="#000000" font-family="Times" font-style="normal" font-weight="normal" font-size="144" text-anchor="start">(program-</text>
<!-- Text -->
<text xml:space="preserve" x="11925" y="5887" fill="#000000" font-family="Times" font-style="normal" font-weight="normal" font-size="144" text-anchor="start">rækkefølge)</text>
<!-- Text -->
<text xml:space="preserve" x="3330" y="5670" fill="#000000" font-family="Times" font-style="normal" font-weight="normal" font-size="144" text-anchor="start">(program-</text>
<!-- Text -->
<text xml:space="preserve" x="3330" y="5887" fill="#000000" font-family="Times" font-style="normal" font-weight="normal" font-size="144" text-anchor="start">rækkefølge)</text>
<!-- Text -->
<text xml:space="preserve" x="405" y="1980" fill="#000000" font-family="Times" font-style="normal" font-weight="normal" font-size="144" text-anchor="start">frontend</text>
<!-- Text -->
<text xml:space="preserve" x="450" y="7425" fill="#000000" font-family="Times" font-style="normal" font-weight="normal" font-size="144" text-anchor="start">backend</text>
<!-- Text -->
<text xml:space="preserve" x="4905" y="5850" fill="#000000" font-family="Times" font-style="normal" font-weight="normal" font-size="144" text-anchor="start">kill-all</text>
<!-- Text -->
<text xml:space="preserve" x="765" y="4680" fill="#000000" font-family="Times" font-style="normal" font-weight="normal" font-size="144" text-anchor="start">copy</text>
<!-- Text -->
<text xml:space="preserve" x="765" y="4897" fill="#000000" font-family="Times" font-style="normal" font-weight="normal" font-size="144" text-anchor="start">on</text>
<!-- Text -->
<text xml:space="preserve" x="765" y="5114" fill="#000000" font-family="Times" font-style="normal" font-weight="normal" font-size="144" text-anchor="start">pipeline</text>
<!-- Text -->
<text xml:space="preserve" x="765" y="5331" fill="#000000" font-family="Times" font-style="normal" font-weight="normal" font-size="144" text-anchor="start">flush</text>
<!-- Text -->
<text xml:space="preserve" x="405" y="2197" fill="#000000" font-family="Times" font-style="normal" font-weight="normal" font-size="144" text-anchor="start">reg-&gt;phys reg</text>
<!-- Text -->
<text xml:space="preserve" x="2250" y="4365" fill="#000000" font-family="Times" font-style="normal" font-weight="normal" font-size="144" text-anchor="start">phys reg</text>
<!-- Text -->
<text xml:space="preserve" x="450" y="7642" fill="#000000" font-family="Times" font-style="normal" font-weight="normal" font-size="144" text-anchor="start">reg-&gt;phys reg</text>
</g>
</svg>
