<?xml version="1.0" encoding="UTF-8" standalone="no"?>
<!-- Creator: fig2dev Version 3.2.9 -->
<!-- CreationDate: 2025-12-07 15:45:59 -->
<!-- Magnification: 1.05 -->
<svg	xmlns="http://www.w3.org/2000/svg"
	xmlns:xlink="http://www.w3.org/1999/xlink"
	width="484pt" height="110pt"
	viewBox="888 168 7674 1746">
<g fill="none">
<!-- Line -->
<rect x="900" y="450" width="1305" height="450"
	stroke="#000000" stroke-width="8px"/>
<!-- Line -->
<rect x="2205" y="450" width="1305" height="450"
	stroke="#000000" stroke-width="8px"/>
<!-- Line -->
<rect x="4320" y="180" width="2115" height="1125" rx="105"
	stroke="#000000" stroke-width="8px"/>
<!-- Line -->
<rect x="7245" y="450" width="1305" height="450"
	stroke="#000000" stroke-width="8px"/>
<!-- Line -->
<defs>
<clipPath id="cp0">
	<path clip-rule="evenodd" d="M 888,168 H 8562 V 1914 H 888 z
		M 4183,645 4303,675 4183,705 4327,682 4327,668z"/>
</clipPath>
</defs>
<polyline points=" 3510,675 4320,675" clip-path="url(#cp0)"
	stroke="#000000" stroke-width="8px"/>
<!-- Forward arrow to point 4320,675 -->
<polyline points=" 4183,645 4303,675 4183,705"
	stroke="#000000" stroke-width="8px" stroke-miterlimit="8"/>
<!-- Line -->
<defs>
<clipPath id="cp1">
	<path clip-rule="evenodd" d="M 888,168 H 8562 V 1914 H 888 z
		M 7108,645 7228,675 7108,705 7252,682 7252,668z"/>
</clipPath>
</defs>
<polyline points=" 6435,675 7245,675" clip-path="url(#cp1)"
	stroke="#000000" stroke-width="8px"/>
<!-- Forward arrow to point 7245,675 -->
<polyline points=" 7108,645 7228,675 7108,705"
	stroke="#000000" stroke-width="8px" stroke-miterlimit="8"/>
<!-- Line -->
<defs>
<clipPath id="cp2">
	<path clip-rule="evenodd" d="M 888,168 H 8562 V 1914 H 888 z
		M 7455,1483 7425,1603 7395,1483 7418,1627 7432,1627z"/>
</clipPath>
</defs>
<polyline points=" 7425,900 7425,1620" clip-path="url(#cp2)"
	stroke="#000000" stroke-width="8px"/>
<!-- Forward arrow to point 7425,1620 -->
<polyline points=" 7455,1483 7425,1603 7395,1483"
	stroke="#000000" stroke-width="8px" stroke-miterlimit="8"/>
<!-- Text -->
<text xml:space="preserve" x="2475" y="720" fill="#000000" font-family="Times" font-style="normal" font-weight="normal" font-size="144" text-anchor="start">Afkodning</text>
<!-- Text -->
<text xml:space="preserve" x="4410" y="405" fill="#000000" font-family="Times" font-style="normal" font-weight="normal" font-size="144" text-anchor="start">Sandkasse</text>
<!-- Text -->
<text xml:space="preserve" x="5085" y="945" fill="#000000" font-family="Times" font-style="normal" font-weight="normal" font-size="144" text-anchor="start">Fri leg!</text>
<!-- Text -->
<text xml:space="preserve" x="1125" y="720" fill="#000000" font-family="Times" font-style="normal" font-weight="normal" font-size="144" text-anchor="start">Hentning</text>
<!-- Text -->
<text xml:space="preserve" x="7335" y="720" fill="#000000" font-family="Times" font-style="normal" font-weight="normal" font-size="144" text-anchor="start">Fuldfoerelse</text>
<!-- Text -->
<text xml:space="preserve" x="6525" y="1845" fill="#000000" font-family="Times" font-style="normal" font-weight="normal" font-size="144" text-anchor="start">Resultater synlige her</text>
</g>
</svg>
