<?xml version="1.0" encoding="UTF-8" standalone="no"?>
<!-- Creator: fig2dev Version 3.2.9 -->
<!-- CreationDate: 2025-12-07 15:44:34 -->
<!-- Magnification: 1.05 -->
<svg	xmlns="http://www.w3.org/2000/svg"
	xmlns:xlink="http://www.w3.org/1999/xlink"
	width="488pt" height="172pt"
	viewBox="888 393 7744 2724">
<g fill="none">
<!-- Line -->
<rect x="4320" y="1980" width="2115" height="1125" rx="105"
	stroke="#000000" stroke-width="8px"/>
<!-- Text -->
<text xml:space="preserve" x="4410" y="2205" fill="#000000" font-family="Times" font-style="normal" font-weight="normal" font-size="144" text-anchor="start">Sandkasse</text>
<!-- Text -->
<text xml:space="preserve" x="5085" y="2745" fill="#000000" font-family="Times" font-style="normal" font-weight="normal" font-size="144" text-anchor="start">Fri leg!</text>
<!-- Line -->
<rect x="900" y="450" width="1305" height="450"
	stroke="#000000" stroke-width="8px"/>
<!-- Line -->
<rect x="2205" y="450" width="1305" height="450"
	stroke="#000000" stroke-width="8px"/>
<!-- Line -->
<rect x="7245" y="450" width="1305" height="450"
	stroke="#000000" stroke-width="8px"/>
<!-- Line -->
<defs>
<clipPath id="cp0">
	<path clip-rule="evenodd" d="M 888,393 H 8632 V 3117 H 888 z
		M 4183,555 4303,585 4183,615 4327,592 4327,578z"/>
</clipPath>
</defs>
<polyline points=" 3510,585 4320,585" clip-path="url(#cp0)"
	stroke="#000000" stroke-width="8px"/>
<!-- Forward arrow to point 4320,585 -->
<polyline points=" 4183,555 4303,585 4183,615"
	stroke="#000000" stroke-width="8px" stroke-miterlimit="8"/>
<!-- Line -->
<defs>
<clipPath id="cp1">
	<path clip-rule="evenodd" d="M 888,393 H 8632 V 3117 H 888 z
		M 7108,555 7228,585 7108,615 7252,592 7252,578z"/>
</clipPath>
</defs>
<polyline points=" 6435,585 7245,585" clip-path="url(#cp1)"
	stroke="#000000" stroke-width="8px"/>
<!-- Forward arrow to point 7245,585 -->
<polyline points=" 7108,555 7228,585 7108,615"
	stroke="#000000" stroke-width="8px" stroke-miterlimit="8"/>
<!-- Line -->
<defs>
<clipPath id="cp2">
	<path clip-rule="evenodd" d="M 888,393 H 8632 V 3117 H 888 z
		M 8265,1483 8235,1603 8205,1483 8228,1627 8242,1627z"/>
</clipPath>
</defs>
<polyline points=" 8235,900 8235,1620" clip-path="url(#cp2)"
	stroke="#000000" stroke-width="8px"/>
<!-- Forward arrow to point 8235,1620 -->
<polyline points=" 8265,1483 8235,1603 8205,1483"
	stroke="#000000" stroke-width="8px" stroke-miterlimit="8"/>
<!-- Line -->
<defs>
<clipPath id="cp3">
	<path clip-rule="evenodd" d="M 888,393 H 8632 V 3117 H 888 z
		M 4200,918 4304,985 4181,975 4324,999 4329,986z"/>
</clipPath>
</defs>
<polyline points=" 3510,720 4320,990" clip-path="url(#cp3)"
	stroke="#000000" stroke-width="8px"/>
<!-- Forward arrow to point 4320,990 -->
<polyline points=" 4200,918 4304,985 4181,975"
	stroke="#000000" stroke-width="8px" stroke-miterlimit="8"/>
<!-- Line -->
<defs>
<clipPath id="cp4">
	<path clip-rule="evenodd" d="M 888,393 H 8632 V 3117 H 888 z
		M 4267,1896 4311,2011 4218,1930 4318,2034 4329,2027z"/>
</clipPath>
</defs>
<polyline points=" 3510,855 4320,2025" clip-path="url(#cp4)"
	stroke="#000000" stroke-width="8px"/>
<!-- Forward arrow to point 4320,2025 -->
<polyline points=" 4267,1896 4311,2011 4218,1930"
	stroke="#000000" stroke-width="8px" stroke-miterlimit="8"/>
<!-- Line -->
<defs>
<clipPath id="cp5">
	<path clip-rule="evenodd" d="M 888,393 H 8632 V 3117 H 888 z
		M 7062,699 7185,681 7085,755 7209,679 7204,666z"/>
</clipPath>
</defs>
<polyline points=" 6435,990 7200,675" clip-path="url(#cp5)"
	stroke="#000000" stroke-width="8px"/>
<!-- Forward arrow to point 7200,675 -->
<polyline points=" 7062,699 7185,681 7085,755"
	stroke="#000000" stroke-width="8px" stroke-miterlimit="8"/>
<!-- Line -->
<defs>
<clipPath id="cp6">
	<path clip-rule="evenodd" d="M 888,393 H 8632 V 3117 H 888 z
		M 7143,861 7236,779 7193,895 7254,763 7243,756z"/>
</clipPath>
</defs>
<polyline points=" 6390,2025 7245,765" clip-path="url(#cp6)"
	stroke="#000000" stroke-width="8px"/>
<!-- Forward arrow to point 7245,765 -->
<polyline points=" 7143,861 7236,779 7193,895"
	stroke="#000000" stroke-width="8px" stroke-miterlimit="8"/>
<!-- Line -->
<defs>
<clipPath id="cp7">
	<path clip-rule="evenodd" d="M 888,393 H 8632 V 3117 H 888 z
		M 4755,1843 4725,1963 4695,1843 4718,1987 4732,1987z"/>
</clipPath>
</defs>
<polyline points=" 4725,1260 4725,1980" clip-path="url(#cp7)"
	stroke="#000000" stroke-width="8px"/>
<!-- Forward arrow to point 4725,1980 -->
<polyline points=" 4755,1843 4725,1963 4695,1843"
	stroke="#000000" stroke-width="8px" stroke-miterlimit="8"/>
<!-- Line -->
<defs>
<clipPath id="cp8">
	<path clip-rule="evenodd" d="M 888,393 H 8632 V 3117 H 888 z
		M 6045,1397 6075,1277 6105,1397 6082,1253 6068,1253z"/>
</clipPath>
</defs>
<polyline points=" 6075,1980 6075,1260" clip-path="url(#cp8)"
	stroke="#000000" stroke-width="8px"/>
<!-- Forward arrow to point 6075,1260 -->
<polyline points=" 6045,1397 6075,1277 6105,1397"
	stroke="#000000" stroke-width="8px" stroke-miterlimit="8"/>
<!-- Line -->
<rect x="4320" y="405" width="2115" height="315"
	stroke="#000000" stroke-width="8px"/>
<!-- Line -->
<rect x="4320" y="900" width="2115" height="270"
	stroke="#000000" stroke-width="8px"/>
<!-- Text -->
<text xml:space="preserve" x="2475" y="720" fill="#000000" font-family="Times" font-style="normal" font-weight="normal" font-size="144" text-anchor="start">Afkodning</text>
<!-- Text -->
<text xml:space="preserve" x="1125" y="720" fill="#000000" font-family="Times" font-style="normal" font-weight="normal" font-size="144" text-anchor="start">Hentning</text>
<!-- Text -->
<text xml:space="preserve" x="7335" y="720" fill="#000000" font-family="Times" font-style="normal" font-weight="normal" font-size="144" text-anchor="start">Fuldfoerelse</text>
<!-- Text -->
<text xml:space="preserve" x="7695" y="2115" fill="#000000" font-family="Times" font-style="normal" font-weight="normal" font-size="144" text-anchor="start">synlige her</text>
<!-- Text -->
<text xml:space="preserve" x="7785" y="1935" fill="#000000" font-family="Times" font-style="normal" font-weight="normal" font-size="144" text-anchor="start">Resultater</text>
<!-- Text -->
<text xml:space="preserve" x="4815" y="1845" fill="#000000" font-family="Times" font-style="normal" font-weight="normal" font-size="144" text-anchor="start">operander</text>
<!-- Text -->
<text xml:space="preserve" x="5130" y="1575" fill="#000000" font-family="Times" font-style="normal" font-weight="normal" font-size="144" text-anchor="start">resultater</text>
<!-- Text -->
<text xml:space="preserve" x="4455" y="630" fill="#000000" font-family="Times" font-style="normal" font-weight="normal" font-size="144" text-anchor="start">resultat-koe</text>
<!-- Text -->
<text xml:space="preserve" x="4410" y="1080" fill="#000000" font-family="Times" font-style="normal" font-weight="normal" font-size="144" text-anchor="start">store-koe</text>
</g>
</svg>
